<svg xmlns="http://www.w3.org/2000/svg" xmlns:xlink="http://www.w3.org/1999/xlink" width="20" height="20" viewBox="0 0 20 20">
    <defs>
        <path id="a" d="M0 0h20v20H0z"/>
    </defs>
    <g fill="none" fill-rule="evenodd">
        <mask id="b" fill="#fff">
            <use xlink:href="#a"/>
        </mask>
        <path fill="#FFF" d="M17.647 4.607a1.597 1.597 0 0 1-1.119.463c-.416 0-.824-.17-1.118-.463a1.595 1.595 0 0 1-.464-1.12c0-.416.17-.825.464-1.118a1.588 1.588 0 0 1 1.118-.463c.417 0 .825.168 1.119.463.295.293.463.702.463 1.119 0 .415-.168.824-.463 1.119zM10 14.497A4.502 4.502 0 0 1 5.503 10 4.502 4.502 0 0 1 10 5.503 4.502 4.502 0 0 1 14.497 10 4.502 4.502 0 0 1 10 14.497zm10 .95V4.553A4.558 4.558 0 0 0 15.447 0H4.552A4.558 4.558 0 0 0 0 4.553v10.894A4.558 4.558 0 0 0 4.552 20h10.895A4.558 4.558 0 0 0 20 15.447z" mask="url(#b)"/>
    </g>
</svg>
