<svg xmlns="http://www.w3.org/2000/svg" width="316" height="131" viewBox="0 0 316 131">
    <g fill="#FFF" fill-rule="evenodd">
        <path d="M80.948 131H0V0h13.99v117.938h66.958zM179.015 81.396L154.107 19.64l-24.998 61.756h49.906zm5.596 13.153h-61.006L108.803 131H94.004L147.609 0h12.906l53.605 131h-14.71l-14.799-36.451zM236.09 117.938h39.476c7.893 0 14.243-2.286 19.05-6.852 4.802-4.569 7.205-10.413 7.205-17.54 0-7.249-2.434-13.415-7.299-18.5-4.866-5.083-11.185-7.628-18.956-7.628H236.09v50.52zm36.63-104.785h-36.63v41.935h36.63c7.036 0 12.561-1.904 16.57-5.712 4.008-3.805 6.012-9.03 6.012-15.668 0-6.09-2.004-11.036-6.012-14.844-4.009-3.805-9.534-5.71-16.57-5.71zm21.665 47.688c.612.244 1.377.578 2.294 1.005.92.426 2.631 1.584 5.142 3.47 2.508 1.89 4.711 3.96 6.61 6.211 1.896 2.258 3.625 5.378 5.186 9.365 1.561 3.989 2.34 8.21 2.34 12.654 0 10.84-3.732 19.791-11.198 26.858-7.468 7.065-17.2 10.596-29.193 10.596h-53.612V0h50.767c10.647 0 19.416 3.242 26.3 9.727 6.884 6.487 10.327 14.482 10.327 23.981 0 3.837-.49 7.387-1.468 10.645-.981 3.257-2.235 5.86-3.765 7.81-1.53 1.948-3.044 3.608-4.544 4.978-1.5 1.372-2.74 2.3-3.718 2.787l-1.468.913z"/>
    </g>
</svg>
