<?xml version="1.0" encoding="UTF-8"?>
<svg width="199px" height="64px" viewBox="0 0 199 64" version="1.1" xmlns="http://www.w3.org/2000/svg" xmlns:xlink="http://www.w3.org/1999/xlink">
    <!-- Generator: sketchtool 55.2 (78181) - https://sketchapp.com -->
    <title>B8CE9231-AD49-49D5-88F5-7C6F996530FB</title>
    <desc>Created with sketchtool.</desc>
    <defs>
        <polygon id="path-1" points="0 63 198.572 63 198.572 0.963 0 0.963"></polygon>
    </defs>
    <g id="Symbols" stroke="none" stroke-width="1" fill="none" fill-rule="evenodd">
        <g id="img/logo-light">
            <g id="Group-18">
                <polygon id="Fill-1" fill="#00DA00" points="23.3334 24.3939 0.0094 47.7179 12.4744 47.7179 35.7984 24.3939 12.4744 1.0709 0.0004 1.0609"></polygon>
                <polygon id="Fill-2" fill="#00DA00" points="175.0113 1.0002 175.0113 48.1212 198.5723 24.5602"></polygon>
                <polygon id="Fill-3" fill="#FFFFFF" points="53.0433 53.0715 48.9163 58.4845 44.7883 53.0715 43.8653 53.0715 43.8653 63.0365 44.9353 63.0365 44.9353 54.9275 48.9163 60.1875 52.9043 54.9275 52.9043 63.0365 53.9673 63.0365 53.9673 53.0715"></polygon>
                <polygon id="Fill-4" fill="#FFFFFF" points="64.305 53.0715 64.305 63.0375 71.281 63.0375 71.281 62.0425 65.375 62.0425 65.375 58.3395 69.996 58.3395 69.996 57.3465 65.375 57.3465 65.375 54.0735 71.134 54.0735 71.134 53.0715"></polygon>
                <g id="Group-17" transform="translate(0.000000, 0.037200)">
                    <path d="M83.7273,54.0356 L81.6643,54.0356 L81.6643,62.0056 L83.7273,62.0056 C84.8943,62.0056 85.8743,61.6196 86.6663,60.8456 C87.4593,60.0716 87.8553,59.1306 87.8553,58.0206 C87.8553,56.9116 87.4593,55.9706 86.6663,55.1956 C85.8743,54.4226 84.8943,54.0356 83.7273,54.0356 L83.7273,54.0356 Z M80.5933,53.0346 L83.7273,53.0346 C85.1773,53.0346 86.4053,53.5236 87.4103,54.5016 C88.4153,55.4786 88.9183,56.6506 88.9183,58.0166 C88.9183,59.3836 88.4153,60.5566 87.4103,61.5336 C86.4053,62.5116 85.1773,62.9996 83.7273,62.9996 L80.5933,62.9996 L80.5933,53.0346 Z" id="Fill-5" fill="#FFFFFF"></path>
                    <mask id="mask-2" fill="white">
                        <use xlink:href="#path-1"></use>
                    </mask>
                    <g id="Clip-8"></g>
                    <polygon id="Fill-7" fill="#FFFFFF" mask="url(#mask-2)" points="98.615 63 99.685 63 99.685 53.035 98.615 53.035"></polygon>
                    <path d="M115.4001,59.2266 L113.4821,54.5286 L111.5581,59.2266 L115.4001,59.2266 Z M115.8311,60.2276 L111.1331,60.2276 L109.9941,62.9996 L108.8541,62.9996 L112.9821,53.0346 L113.9751,53.0346 L118.1031,62.9996 L116.9701,62.9996 L115.8311,60.2276 Z" id="Fill-9" fill="#FFFFFF" mask="url(#mask-2)"></path>
                    <polygon id="Fill-10" fill="#FFFFFF" mask="url(#mask-2)" points="133.4646 62.9995 127.2736 62.9995 127.2736 53.0345 128.3436 53.0345 128.3436 62.0055 133.4646 62.0055"></polygon>
                    <path d="M148.5798,59.2266 L146.6628,54.5286 L144.7378,59.2266 L148.5798,59.2266 Z M149.0108,60.2276 L144.3138,60.2276 L143.1748,62.9996 L142.0338,62.9996 L146.1618,53.0346 L147.1558,53.0346 L151.2828,62.9996 L150.1508,62.9996 L149.0108,60.2276 Z" id="Fill-11" fill="#FFFFFF" mask="url(#mask-2)"></path>
                    <path d="M161.5242,62.0059 L164.5112,62.0059 C165.1092,62.0059 165.5892,61.8319 165.9542,61.4849 C166.3172,61.1369 166.4992,60.6929 166.4992,60.1509 C166.4992,59.5989 166.3152,59.1309 165.9462,58.7439 C165.5782,58.3569 165.0992,58.1639 164.5112,58.1639 L161.5242,58.1639 L161.5242,62.0059 Z M164.2952,54.0359 L161.5242,54.0359 L161.5242,57.2259 L164.2952,57.2259 C164.8292,57.2259 165.2472,57.0809 165.5502,56.7909 C165.8542,56.5019 166.0042,56.1049 166.0042,55.5989 C166.0042,55.1359 165.8542,54.7599 165.5502,54.4699 C165.2472,54.1809 164.8292,54.0359 164.2952,54.0359 L164.2952,54.0359 Z M165.9362,57.6629 C165.9822,57.6809 166.0412,57.7079 166.1102,57.7399 C166.1782,57.7719 166.3082,57.8599 166.4992,58.0039 C166.6892,58.1469 166.8552,58.3049 167.0002,58.4759 C167.1422,58.6479 167.2742,58.8849 167.3912,59.1879 C167.5092,59.4909 167.5692,59.8129 167.5692,60.1509 C167.5692,60.9749 167.2862,61.6559 166.7212,62.1929 C166.1562,62.7309 165.4202,62.9999 164.5112,62.9999 L160.4542,62.9999 L160.4542,53.0349 L164.2952,53.0349 C165.1022,53.0349 165.7652,53.2819 166.2882,53.7749 C166.8082,54.2689 167.0692,54.8769 167.0692,55.5989 C167.0692,55.8909 167.0322,56.1609 166.9582,56.4089 C166.8822,56.6569 166.7882,56.8549 166.6712,57.0029 C166.5572,57.1509 166.4422,57.2779 166.3292,57.3819 C166.2142,57.4859 166.1222,57.5559 166.0462,57.5929 L165.9362,57.6629 Z" id="Fill-12" fill="#FFFFFF" mask="url(#mask-2)"></path>
                    <path d="M60.3718,9.7056 L50.5278,9.7056 L50.5278,24.1886 L60.3718,24.1886 C62.3708,24.1886 64.0768,23.4966 65.4918,22.1106 C66.9058,20.7246 67.6138,19.0076 67.6138,16.9616 C67.6138,14.9156 66.9058,13.1946 65.4918,11.7996 C64.0768,10.4046 62.3708,9.7056 60.3718,9.7056 L60.3718,9.7056 Z M44.1628,3.9066 L60.3718,3.9066 C64.2378,3.9066 67.4758,5.1756 70.0888,7.7106 C72.6998,10.2476 74.0058,13.3316 74.0058,16.9616 C74.0058,20.5916 72.6998,23.6706 70.0888,26.1976 C67.4758,28.7246 64.2378,29.9876 60.3718,29.9876 L50.5278,29.9876 L50.5278,44.4716 L44.1628,44.4716 L44.1628,3.9066 Z" id="Fill-13" fill="#FFFFFF" mask="url(#mask-2)"></path>
                    <polygon id="Fill-14" fill="#FFFFFF" mask="url(#mask-2)" points="82.553 44.471 88.918 44.471 88.918 3.907 82.553 3.907"></polygon>
                    <polygon id="Fill-15" fill="#FFFFFF" mask="url(#mask-2)" points="143.0242 38.6724 165.9082 38.6724 165.9082 44.4714 136.6592 44.4714 136.6592 3.9064 165.3422 3.9064 165.3422 9.7054 143.0242 9.7054 143.0242 20.4264 160.7042 20.4264 160.7042 26.2254 143.0242 26.2254"></polygon>
                    <polygon id="Fill-16" fill="#FFFFFF" mask="url(#mask-2)" points="129.9402 3.9067 122.2302 3.9147 108.9992 20.7227 106.2662 20.7227 106.2662 3.9067 99.9022 3.9067 99.9022 44.4717 106.2662 44.4717 106.2662 27.6557 108.9932 27.6557 122.2302 44.4707 129.9332 44.4707 113.9692 24.1927"></polygon>
                </g>
            </g>
        </g>
    </g>
</svg>