<svg xmlns="http://www.w3.org/2000/svg" xmlns:xlink="http://www.w3.org/1999/xlink" width="683" height="132" viewBox="0 0 683 132">
    <defs>
        <path id="a" d="M0 132h532V.206H0z"/>
    </defs>
    <g fill="none" fill-rule="evenodd">
        <path fill="#FFF" d="M272.428 0l-54.6 70.807L163.228 0H151v130.344h14.158V24.269l52.67 68.807 52.76-68.807v106.075h14.067V0zM308.241 0v130.344h89.104v-12.999H321.91V68.898h59.015V55.9H321.91V13.09h73.571V0z"/>
        <g transform="translate(151)">
            <path fill="#FFF" d="M304.388 13.44h-26.92v105.417h26.92c15.228 0 28.008-5.115 38.341-15.347 10.333-10.231 15.5-22.685 15.5-37.36 0-14.673-5.167-27.125-15.5-37.36-10.333-10.232-23.113-15.35-38.34-15.35zM263.511.207h40.877c18.914 0 34.926 6.465 48.038 19.392 13.111 12.93 19.669 28.431 19.669 46.504 0 18.077-6.558 33.577-19.669 46.504-13.112 12.93-29.124 19.392-48.038 19.392h-40.877V.207z"/>
            <mask id="b" fill="#fff">
                <use xlink:href="#a"/>
            </mask>
            <path fill="#FFF" d="M386.024 132h13.958V.206h-13.958zM496.39 82.095l-25.017-62.129-25.106 62.13h50.123zm5.62 13.233h-61.272l-14.865 36.671h-14.864L464.847.207h12.963L531.648 132h-14.774L502.01 95.328z" mask="url(#b)"/>
        </g>
        <g fill="#01DA00">
            <path d="M68.189 0l.301 131L139 65.36 68.19 0z"/>
            <path d="M0 0l.302 131 70.51-65.64L0 0z"/>
        </g>
    </g>
</svg>
