<svg xmlns="http://www.w3.org/2000/svg" width="1246" height="162" viewBox="0 0 1246 162">
    <g fill="none" fill-rule="evenodd">
        <g fill="#FFF">
            <path d="M955.245 161.86h-99.762V1.268h17.242v144.577h82.52zM1073.2 101.05l-30.903-75.703-31.014 75.704h61.917zm6.943 16.125h-75.69l-18.363 44.683h-18.362l66.507-160.587h16.013l66.507 160.587h-18.25l-18.362-44.683zM1147.73 145.846h48.146c9.627 0 17.371-2.802 23.234-8.4 5.858-5.6 8.788-12.764 8.788-21.502 0-8.885-2.969-16.444-8.902-22.677-5.935-6.231-13.643-9.35-23.12-9.35h-48.146v61.929zm44.675-128.451h-44.675V68.8h44.675c8.582 0 15.32-2.333 20.21-7 4.888-4.666 7.332-11.07 7.332-19.208 0-7.466-2.444-13.529-7.333-18.196-4.889-4.665-11.627-7.001-20.209-7.001zm26.423 58.458c.747.3 1.68.708 2.799 1.233 1.121.522 3.209 1.94 6.27 4.254 3.06 2.315 5.747 4.853 8.063 7.613 2.312 2.768 4.42 6.593 6.325 11.48 1.904 4.89 2.855 10.064 2.855 15.511 0 13.29-4.553 24.262-13.658 32.925-9.108 8.66-20.979 12.99-35.606 12.99h-65.388V1.27h61.917c12.987 0 23.682 3.974 32.077 11.924 8.398 7.952 12.596 17.752 12.596 29.397 0 4.704-.596 9.056-1.79 13.049-1.197 3.993-2.726 7.184-4.592 9.575-1.865 2.388-3.713 4.422-5.542 6.101-1.83 1.683-3.341 2.82-4.535 3.417l-1.79 1.119z"/>
        </g>
        <g fill="#FFF">
            <path d="M333.086 1.054l-66.587 87.355-66.587-87.355H185v160.805h17.266V30.995l64.233 84.886 64.344-84.886v130.864h17.154V1.054zM379.997 1.054v160.805h111.998v-16.037h-94.817V86.054h74.178V70.017h-74.178V17.202h92.474V1.054zM561.015 17.394H527.76v128.451h33.255c18.81 0 34.598-6.233 47.363-18.7 12.764-12.467 19.147-27.643 19.147-45.524 0-17.879-6.383-33.051-19.147-45.524-12.765-12.467-28.552-18.703-47.363-18.703zM510.518 1.27h50.497c23.364 0 43.143 7.878 59.342 23.63 16.196 15.754 24.296 34.643 24.296 56.664 0 22.027-8.1 40.913-24.296 56.665-16.199 15.754-35.978 23.629-59.342 23.629h-50.497V1.27zM661.86 161.86h17.243V1.268h-17.242zM798.197 101.05l-30.903-75.703-31.015 75.704h61.918zm6.943 16.125h-75.69l-18.364 44.683h-18.36L759.231 1.271h16.012l66.507 160.587h-18.25l-18.36-44.683z"/>
        </g>
        <path fill="#01DA00" d="M84.503 0h.001L169 80.828 84.863 162l-.36-162zM0 0h.001l84.496 80.828L.361 162 0 0z"/>
    </g>
</svg>
