<svg xmlns="http://www.w3.org/2000/svg" xmlns:xlink="http://www.w3.org/1999/xlink" width="13" height="23" viewBox="0 0 13 23">
    <defs>
        <path id="a" d="M0 .14h12.85v11.11H0z"/>
        <path id="c" d="M.127.127h11.82v11.835H.128z"/>
    </defs>
    <g fill="none" fill-rule="evenodd">
        <g transform="translate(0 11)">
            <mask id="b" fill="#fff">
                <use xlink:href="#a"/>
            </mask>
            <path fill="#FFF" d="M5.372 4.634c-1.66-.18-3.155-.608-4.436-1.656-.159-.13-.323-.256-.468-.401-.56-.563-.617-1.208-.173-1.872C.675.136 1.31-.016 1.973.31c.129.063.25.142.368.226C4.728 2.253 8.006 2.3 10.402.615c.238-.19.491-.346.785-.425.572-.153 1.105.066 1.412.59.35.597.346 1.18-.086 1.643-.662.712-1.459 1.226-2.344 1.585-.837.34-1.754.51-2.662.624.137.156.202.232.287.322 1.232 1.295 2.47 2.584 3.698 3.883.419.442.506.991.276 1.506-.252.562-.816.933-1.369.893-.35-.025-.624-.208-.866-.464-.93-.978-1.878-1.938-2.789-2.935-.265-.29-.392-.236-.626.016a191.08 191.08 0 0 1-2.843 2.985c-.43.442-.94.522-1.439.27-.53-.269-.866-.834-.84-1.402.018-.384.199-.677.45-.94C2.667 7.491 3.884 6.215 5.1 4.94c.08-.085.156-.175.273-.306" mask="url(#b)"/>
        </g>
        <g transform="translate(1)">
            <mask id="d" fill="#fff">
                <use xlink:href="#c"/>
            </mask>
            <path fill="#FFF" d="M8.933 6.04a2.882 2.882 0 0 0-2.891-2.89 2.887 2.887 0 0 0-2.899 2.924 2.882 2.882 0 0 0 2.914 2.868 2.876 2.876 0 0 0 2.876-2.903m-2.939 5.923C2.76 11.952.108 9.271.127 6.032.146 2.756 2.8.117 6.065.126c3.272.009 5.899 2.686 5.883 5.994-.017 3.233-2.687 5.853-5.954 5.841" mask="url(#d)"/>
        </g>
    </g>
</svg>
