<svg xmlns="http://www.w3.org/2000/svg" xmlns:xlink="http://www.w3.org/1999/xlink" width="577" height="162" viewBox="0 0 577 162">
    <defs>
        <path id="a" d="M0 .253h112.45V160.84H0z"/>
        <path id="c" d="M0 160.86h430.964V.053H0z"/>
    </defs>
    <g fill="none" fill-rule="evenodd">
        <g transform="translate(0 1)">
            <g transform="translate(0 .018)">
                <mask id="b" fill="#fff">
                    <use xlink:href="#a"/>
                </mask>
                <path fill="#FFF" d="M60.817 16.379H17.25v68.757h43.567c10.378 0 18.703-3.132 24.976-9.402 6.27-6.275 9.409-14.599 9.409-24.975 0-10.376-3.138-18.703-9.409-24.97-6.273-6.275-14.598-9.41-24.976-9.41zM0 .253h60.818c14.857 0 27.178 4.814 36.959 14.446 9.78 9.63 14.673 21.634 14.673 36.003 0 14.374-4.91 26.394-14.727 36.06-9.82 9.673-22.12 14.503-36.905 14.503H17.25v59.575H0V.253z" mask="url(#b)"/>
            </g>
            <mask id="d" fill="#fff">
                <use xlink:href="#c"/>
            </mask>
            <path fill="#FFF" d="M131.683 160.86h17.957V.053h-17.957zM198.858 90.775L281.628.054h21.787l-60.87 66.613 66.711 94.192h-20.778l-57.5-81.522-32.12 34.426v47.096h-17.295V.054h17.295zM336.37 144.825h94.594v16.034H319.233V.054h109.391v16.148H336.37v52.819h74.005v16.032H336.37z" mask="url(#d)"/>
        </g>
        <path fill="#00DA00" d="M449 0l83.431 80.997L449.034 162h44.571L577 80.997 493.605 0z"/>
    </g>
</svg>
