<svg xmlns="http://www.w3.org/2000/svg" xmlns:xlink="http://www.w3.org/1999/xlink" width="470" height="132" viewBox="0 0 470 132">
    <defs>
        <path id="a" d="M0 .207h95.312V132H0z"/>
        <path id="c" d="M0 130.344h352V0H0z"/>
    </defs>
    <g fill="none" fill-rule="evenodd">
        <mask id="b" fill="#fff">
            <use xlink:href="#a"/>
        </mask>
        <path fill="#FFF" d="M51.549 13.442H14.62V69.87h36.928c8.796 0 15.852-2.57 21.17-7.716 5.314-5.15 7.974-11.981 7.974-20.497s-2.66-15.35-7.975-20.493c-5.317-5.15-12.373-7.722-21.17-7.722zM-.001.207h51.55c12.592 0 23.036 3.952 31.326 11.856 8.29 7.903 12.437 17.755 12.437 29.547 0 11.797-4.163 21.662-12.483 29.594-8.323 7.939-18.749 11.903-31.28 11.903H14.62v48.892H0V.207z" mask="url(#b)"/>
        <path fill="#00DA00" d="M365 0l68.44 65.498L365.027 131h36.562L470 65.498 401.59 0z"/>
        <mask id="d" fill="#fff">
            <use xlink:href="#c"/>
        </mask>
        <path fill="#FFF" d="M107.701 130.344h15.762V0H107.7zM163.963 73.536L232.072 0h17.927L199.91 53.995l54.895 76.349h-17.098l-47.315-66.08-26.43 27.905v38.175H149.73V0h14.232zM274.162 117.347H352v12.997h-91.94V0h90.015v13.09h-75.913v42.812h60.896v12.995h-60.896z" mask="url(#d)"/>
    </g>
</svg>
