<?xml version="1.0" encoding="UTF-8"?>
<svg width="108px" height="108px" viewBox="0 0 108 108" version="1.1" xmlns="http://www.w3.org/2000/svg" xmlns:xlink="http://www.w3.org/1999/xlink">
    <!-- Generator: sketchtool 56.3 (101010) - https://sketch.com -->
    <title>2960C359-E79E-456B-B63B-DA478AAA2EF4</title>
    <desc>Created with sketchtool.</desc>
    <g id="Tablet" stroke="none" stroke-width="1" fill="none" fill-rule="evenodd">
        <g id="Home-(1024px)" transform="translate(-738.000000, -4408.000000)" fill="#FFFFFF">
            <g id="Section/PML_banner" transform="translate(-1.000000, 4408.000000)">
                <g id="img/PML_logo" transform="translate(739.000000, 0.000000)">
                    <path d="M0,0 L108,0 L108,108 L0,108 L0,0 Z M11.8058645,38.9710524 L11.8058645,71.5231788 L16.9134158,71.5231788 L16.9134158,59.9006623 L24.813095,59.9006623 C27.9154749,59.9006623 30.514625,58.8867289 32.6106232,56.8588317 C34.7066214,54.8309346 35.7546047,52.3604179 35.7546047,49.4472074 C35.7546047,46.533997 34.7066214,44.0596969 32.6106232,42.024233 C30.514625,39.9887691 27.9154749,38.9710524 24.813095,38.9710524 L11.8058645,38.9710524 Z M24.813095,43.624599 C26.4172524,43.624599 27.7868191,44.1845324 28.9218362,45.3044159 C30.0568533,46.4242994 30.6243533,47.8052161 30.6243533,49.4472074 C30.6243533,51.0891988 30.0568533,52.4663321 28.9218362,53.5786489 C27.7868191,54.6909656 26.4172524,55.2471156 24.813095,55.2471156 L16.9134158,55.2471156 L16.9134158,43.624599 L24.813095,43.624599 Z M56.2723975,54.793111 L43.7191716,38.9710524 L39.3153274,38.9710524 L39.3153274,71.5231788 L44.4228787,71.5231788 L44.4228787,47.8241411 L56.2723975,62.6927903 L68.1446166,47.8241411 L68.1446166,71.5231788 L73.2521678,71.5231788 L73.2521678,38.9710524 L68.8256234,38.9710524 L56.2723975,54.793111 Z M99.5812188,71.5231788 L99.5812188,66.8696321 L83.7818604,66.8696321 L83.7818604,38.9710524 L78.6743092,38.9710524 L78.6743092,71.5231788 L99.5812188,71.5231788 Z M82.9640935,16.4503311 L82.9640935,15.0184706 L78.1027525,15.0184706 L78.1027525,6.43429222 L76.5311983,6.43429222 L76.5311983,16.4503311 L82.9640935,16.4503311 Z M83.677649,16.4503311 L85.2492032,16.4503311 L85.2492032,6.43429222 L83.677649,6.43429222 L83.677649,16.4503311 Z M89.8951366,16.4503311 L91.4666908,16.4503311 L95.3990687,6.43429222 L93.7576676,6.43429222 L90.6774213,14.4457264 L87.6041597,6.43429222 L85.955774,6.43429222 L89.8951366,16.4503311 Z M97.6841783,15.0184706 L97.6841783,11.945209 L102.049607,11.945209 L102.049607,10.5133485 L97.6841783,10.5133485 L97.6841783,7.86615273 L103.195095,7.86615273 L103.195095,6.43429222 L96.1126241,6.43429222 L96.1126241,16.4503311 L103.334789,16.4503311 L103.334789,15.0184706 L97.6841783,15.0184706 Z" id="Combined-Shape"></path>
                </g>
            </g>
        </g>
    </g>
</svg>