<svg xmlns="http://www.w3.org/2000/svg" width="151" height="151" viewBox="0 0 151 151">
    <path fill="#FFF" fill-rule="evenodd" d="M0 0h151v151H0V0zm16.506 54.487V100h7.141V83.75h11.045c4.338 0 7.972-1.418 10.902-4.253 2.931-2.835 4.396-6.29 4.396-10.362 0-4.074-1.465-7.533-4.396-10.379-2.93-2.846-6.564-4.269-10.902-4.269H16.506zm18.186 6.507c2.243 0 4.158.783 5.745 2.348 1.587 1.566 2.38 3.497 2.38 5.793 0 2.295-.793 4.22-2.38 5.776-1.587 1.555-3.502 2.333-5.745 2.333H23.647v-16.25h11.045zm43.985 15.615L61.126 54.487h-6.157V100h7.14V66.865l16.568 20.789 16.6-20.789V100h7.14V54.487h-6.189L78.678 76.61zM139.23 100v-6.506h-22.09V54.487H110V100h29.23zm-23.233-77v-2.002H109.2V8.996h-2.197V23h8.994zm.998 0h2.197V8.996h-2.197V23zm8.693 0h2.197l5.498-14.004h-2.295l-4.307 11.201-4.296-11.2h-2.305L125.687 23zm10.89-2.002v-4.297h6.103V14.7h-6.103v-3.701h7.705V8.996h-9.902V23h10.097v-2.002h-7.9z"/>
</svg>
