<?xml version="1.0" encoding="UTF-8"?>
<svg width="33px" height="54px" viewBox="0 0 33 54" version="1.1" xmlns="http://www.w3.org/2000/svg" xmlns:xlink="http://www.w3.org/1999/xlink">
    <!-- Generator: sketchtool 56.3 (101010) - https://sketch.com -->
    <title>3F712858-8D10-46B5-A747-F17004259368</title>
    <desc>Created with sketchtool.</desc>
    <g id="Tablet" stroke="none" stroke-width="1" fill="none" fill-rule="evenodd">
        <g id="Home-(1024px)" transform="translate(-40.000000, -2846.000000)" fill="#000000">
            <g id="Group-2" transform="translate(0.000000, 2822.000000)">
                <path d="M55.4544585,50.46901 C55.4544585,51.9484538 54.2373424,53.152792 52.7110886,53.152792 C51.2158093,53.152792 49.9986933,51.9484538 49.9986933,50.46901 L49.9986933,43.6238042 C49.9986933,42.1443604 51.2158093,40.9406229 52.7414558,40.9406229 C54.2373424,40.9406229 55.4544585,42.1443604 55.4544585,43.6238042 L55.4544585,50.46901 Z M57.6657955,49.0532369 L57.6657955,43.6238042 C57.6657955,42.1443604 58.8829116,40.9406229 60.3787982,40.9406229 L60.408558,40.9406229 C61.9044446,40.9406229 63.1215607,42.1443604 63.1215607,43.6238042 L63.1215607,49.0532369 C63.1215607,50.5320801 61.9044446,51.7358176 60.3787982,51.7358176 C58.8829116,51.7358176 57.6657955,50.5320801 57.6657955,49.0532369 L57.6657955,49.0532369 Z M42.2113371,56.6066296 C42.2113371,55.1271858 43.4284531,53.9228476 44.9243397,53.9228476 L49.2455876,53.9228476 C50.1766449,54.8370634 51.4053005,55.3392214 52.7414558,55.3392214 C54.0484586,55.3392214 55.2771142,54.8370634 56.2069568,53.9228476 L61.8698261,53.9228476 C63.3657127,53.9228476 64.5828287,55.1271858 64.5828287,56.6066296 C64.5828287,58.0860734 63.3657127,59.2898109 61.8698261,59.2898109 L52.9783197,59.2898109 C52.817981,59.2844049 52.6637158,59.2850056 52.5191681,59.2910122 C51.9221496,59.3132369 51.4447778,59.8135929 51.4563173,60.4040489 C51.4678568,60.9951057 51.963449,61.4768409 52.5616822,61.4768409 L52.7092666,61.4768409 C53.03541,61.4840489 54.1899696,61.548921 55.3791479,62.1117464 C57.1993558,62.9719021 58.2913592,64.5864961 58.62722,66.9104783 C58.6691267,67.2 58.8227846,67.4570857 59.0596485,67.6318799 C59.295905,67.8072747 59.5856078,67.8805562 59.8789546,67.8385095 C60.4820466,67.7532147 60.9029355,67.198198 60.8166927,66.6017353 C60.509377,64.471168 59.6663845,62.7490545 58.3101868,61.4768409 L61.8698261,61.4768409 C64.5852581,61.4768409 66.7947732,59.2922136 66.7947732,56.6066296 C66.7947732,54.7787987 65.7434619,53.0981313 64.0987761,52.2686096 C64.8956106,51.3766185 65.3328978,50.2419577 65.3328978,49.0532369 L65.3328978,36.4242047 C65.3328978,34.9447608 66.5566946,33.7404227 68.0604767,33.7404227 C69.5648661,33.7404227 70.7886629,34.9447608 70.7886629,36.4242047 L70.7886629,62.7448498 C70.7886629,69.9504561 64.860992,75.81297 57.574694,75.81297 L55.425306,75.81297 C48.139008,75.81297 42.2113371,69.9504561 42.2113371,62.7448498 L42.2113371,56.6066296 Z M47.6671022,51.7358176 L44.9243397,51.7358176 C43.9525904,51.7358176 43.0203184,52.0169299 42.2113371,52.5497219 L42.2113371,28.8702113 C42.2113371,27.3907675 43.4351339,26.1876307 44.9395233,26.1876307 C46.4433054,26.1876307 47.6671022,27.3907675 47.6671022,28.8702113 L47.6671022,51.7358176 Z M68.0604767,31.5539933 C65.3371492,31.5539933 63.1215607,33.73802 63.1215607,36.4242047 L63.1215607,39.5674972 C62.311972,39.0341046 61.3772706,38.7529922 60.3787982,38.7529922 C58.8835189,38.7529922 57.5024202,39.4095217 56.5598233,40.5597998 C55.6172265,39.4095217 54.2355204,38.7529922 52.7110886,38.7529922 C51.6846784,38.7529922 50.7117144,39.0605339 49.8784393,39.6443826 L49.8784393,28.8702113 C49.8784393,26.1846274 47.6628508,24 44.9395233,24 C42.2155885,24 40,26.1846274 40,28.8702113 L40,62.7448498 C40,71.1559956 46.9194626,78 55.425306,78 L57.574694,78 C66.0805374,78 73,71.1559956 73,62.7448498 L73,36.4242047 C73,33.73802 70.7844115,31.5539933 68.0604767,31.5539933 L68.0604767,31.5539933 Z" id="rock_icon"></path>
            </g>
        </g>
    </g>
</svg>