<svg xmlns="http://www.w3.org/2000/svg" xmlns:xlink="http://www.w3.org/1999/xlink" width="23" height="20" viewBox="0 0 23 20">
    <defs>
        <path id="a" d="M0 0h23v20H0z"/>
    </defs>
    <g fill="none" fill-rule="evenodd">
        <mask id="b" fill="#fff">
            <use xlink:href="#a"/>
        </mask>
        <path fill="#FFF" d="M23 2.368a8.959 8.959 0 0 1-2.71.795A5.019 5.019 0 0 0 22.365.369a9.081 9.081 0 0 1-2.997 1.225C18.508.614 17.281 0 15.924 0c-2.606 0-4.719 2.26-4.719 5.049 0 .396.042.78.122 1.15C7.406 5.99 3.93 3.98 1.601.925a5.297 5.297 0 0 0-.639 2.538c0 1.752.833 3.298 2.1 4.203a4.468 4.468 0 0 1-2.138-.632v.064c0 2.446 1.626 4.487 3.785 4.95a4.438 4.438 0 0 1-2.13.087c.6 2.006 2.342 3.466 4.407 3.507-1.615 1.354-3.65 2.161-5.86 2.161-.381 0-.757-.024-1.126-.07C2.088 19.163 4.569 20 7.233 20c8.68 0 13.426-7.694 13.426-14.366 0-.219-.005-.436-.014-.653A9.986 9.986 0 0 0 23 2.368" mask="url(#b)"/>
    </g>
</svg>
