<svg xmlns="http://www.w3.org/2000/svg" xmlns:xlink="http://www.w3.org/1999/xlink" width="28" height="16" viewBox="0 0 28 16">
    <defs>
        <path id="a" d="M0 0h28v16H0z"/>
    </defs>
    <g fill="none" fill-rule="evenodd">
        <mask id="b" fill="#fff">
            <use xlink:href="#a"/>
        </mask>
        <path fill="#FFF" d="M27.852 14.45a1.916 1.916 0 0 0-.095-.183c-.486-.876-1.415-1.952-2.785-3.227l-.029-.029-.014-.014-.015-.015h-.015c-.622-.594-1.015-.993-1.18-1.198-.302-.389-.37-.783-.205-1.182.117-.302.554-.94 1.312-1.913.399-.516.715-.93.948-1.24 1.681-2.24 2.41-3.67 2.187-4.294l-.087-.145c-.059-.088-.21-.168-.452-.241-.243-.073-.554-.085-.933-.037l-4.199.03A.544.544 0 0 0 22 .768l-.19.044-.073.036-.058.044a.648.648 0 0 0-.16.153 1.002 1.002 0 0 0-.146.256 23.852 23.852 0 0 1-1.56 3.285c-.36.604-.69 1.127-.991 1.57-.302.443-.554.769-.758.978-.205.21-.389.377-.554.504-.166.126-.292.18-.38.16l-.247-.058a.97.97 0 0 1-.328-.358 1.604 1.604 0 0 1-.168-.57 6.287 6.287 0 0 1-.051-.59c-.005-.166-.002-.4.007-.702.01-.302.015-.506.015-.613 0-.37.007-.771.022-1.205.014-.433.026-.776.036-1.029.01-.253.015-.52.015-.803 0-.282-.017-.504-.051-.664a2.275 2.275 0 0 0-.153-.468.786.786 0 0 0-.299-.35 1.684 1.684 0 0 0-.488-.197c-.515-.117-1.171-.18-1.968-.19-1.808-.02-2.97.098-3.485.35a1.964 1.964 0 0 0-.554.439c-.175.214-.199.33-.073.35.584.087.996.297 1.24.628l.087.175c.068.127.136.35.204.672.068.32.112.676.131 1.065.049.711.049 1.32 0 1.825-.048.507-.094.9-.138 1.183a2.37 2.37 0 0 1-.197.686 2.897 2.897 0 0 1-.175.322.251.251 0 0 1-.073.073 1.09 1.09 0 0 1-.393.073c-.137 0-.302-.069-.496-.205a3.5 3.5 0 0 1-.605-.562 7.514 7.514 0 0 1-.707-1 17.462 17.462 0 0 1-.817-1.519l-.233-.423c-.146-.273-.345-.67-.597-1.19a22.962 22.962 0 0 1-.671-1.511.962.962 0 0 0-.35-.468L5.496.921a.997.997 0 0 0-.233-.124 1.545 1.545 0 0 0-.335-.094L.933.732c-.408 0-.685.092-.83.277l-.06.088A.473.473 0 0 0 0 1.33c0 .107.03.239.088.395A48.219 48.219 0 0 0 1.99 5.696c.685 1.275 1.28 2.302 1.786 3.08.505.78 1.02 1.514 1.545 2.205.525.692.872 1.134 1.042 1.33.17.194.304.34.401.437l.365.35c.233.234.576.514 1.028.84.452.326.952.647 1.501.964.55.316 1.188.574 1.917.774.73.2 1.439.28 2.129.24h1.676c.34-.029.598-.136.773-.32l.058-.074a.969.969 0 0 0 .11-.27c.033-.121.05-.255.05-.401-.01-.419.022-.796.095-1.132.072-.335.155-.588.248-.759a1.863 1.863 0 0 1 .562-.642.967.967 0 0 1 .116-.051c.233-.078.508-.003.824.226.316.23.612.512.89.847.276.336.609.713.998 1.132.389.418.729.73 1.02.934l.292.175c.194.117.447.224.758.322.31.097.582.121.816.073l3.732-.059c.37 0 .656-.06.86-.182.204-.122.326-.256.365-.402.039-.146.04-.311.007-.497a1.835 1.835 0 0 0-.102-.386" mask="url(#b)"/>
    </g>
</svg>
