<svg xmlns="http://www.w3.org/2000/svg" xmlns:xlink="http://www.w3.org/1999/xlink" width="29" height="20" viewBox="0 0 29 20">
    <defs>
        <path id="a" d="M0 0h29v20H0z"/>
    </defs>
    <g fill="none" fill-rule="evenodd">
        <mask id="b" fill="#fff">
            <use xlink:href="#a"/>
        </mask>
        <path fill="#FFF" d="M18.618 10.68l-6.084 3.115a.95.95 0 0 1-.918-.028.913.913 0 0 1-.45-.784V6.77c0-.32.17-.617.449-.784a.952.952 0 0 1 .917-.03l6.084 3.096c.31.158.504.47.504.813a.914.914 0 0 1-.502.813m9.252-8.962C26.823.497 24.89 0 21.2 0H7.8C4.026 0 2.06.53 1.018 1.828 0 3.094 0 4.958 0 7.54v4.92c0 5 1.206 7.54 7.8 7.54h13.4c3.2 0 4.974-.439 6.121-1.515C28.498 17.38 29 15.579 29 12.46V7.54c0-2.722-.079-4.598-1.13-5.823" mask="url(#b)"/>
    </g>
</svg>
